<svg width="62" height="50" viewBox="0 0 62 50" fill="none" xmlns="http://www.w3.org/2000/svg">
<path d="M3.24999 5.125H9.41666V38.375C9.41666 39.0049 9.74151 39.609 10.3197 40.0544C10.898 40.4998 11.6822 40.75 12.5 40.75H49.5C50.1633 40.75 50.809 40.5853 51.3411 40.2802C51.8732 39.9752 52.2634 39.5461 52.4538 39.0566L61.7038 15.3066C61.8418 14.952 61.8702 14.5775 61.7868 14.2129C61.7034 13.8483 61.5105 13.5038 61.2235 13.2069C60.9366 12.9099 60.5635 12.6688 60.134 12.5026C59.7045 12.3365 59.2306 12.25 58.75 12.25H15.5833V2.75C15.5833 2.12011 15.2585 1.51602 14.6802 1.07062C14.102 0.625222 13.3177 0.375 12.5 0.375H3.24999C2.43224 0.375 1.64798 0.625222 1.06974 1.07062C0.491507 1.51602 0.166656 2.12011 0.166656 2.75C0.166656 3.37989 0.491507 3.98398 1.06974 4.42938C1.64798 4.87478 2.43224 5.125 3.24999 5.125ZM15.5833 17H54.606L47.206 36H15.5833V17ZM14.0417 43.125C14.9564 43.125 15.8506 43.3339 16.6112 43.7254C17.3717 44.1168 17.9645 44.6732 18.3146 45.3242C18.6647 45.9752 18.7562 46.6915 18.5778 47.3825C18.3993 48.0736 17.9588 48.7083 17.312 49.2066C16.6652 49.7048 15.8411 50.0441 14.9439 50.1815C14.0468 50.319 13.1169 50.2485 12.2717 49.9788C11.4266 49.7092 10.7043 49.2526 10.1961 48.6667C9.68791 48.0809 9.41666 47.3921 9.41666 46.6875C9.41666 45.7427 9.90393 44.8365 10.7713 44.1684C11.6386 43.5003 12.815 43.125 14.0417 43.125ZM44.875 43.125C45.7897 43.125 46.6839 43.3339 47.4445 43.7254C48.2051 44.1168 48.7979 44.6732 49.1479 45.3242C49.498 45.9752 49.5896 46.6915 49.4111 47.3825C49.2327 48.0736 48.7922 48.7083 48.1454 49.2066C47.4985 49.7048 46.6744 50.0441 45.7773 50.1815C44.8801 50.319 43.9502 50.2485 43.1051 49.9788C42.26 49.7092 41.5376 49.2526 41.0294 48.6667C40.5212 48.0809 40.25 47.3921 40.25 46.6875C40.25 45.7427 40.7373 44.8365 41.6046 44.1684C42.472 43.5003 43.6484 43.125 44.875 43.125Z" fill="black"/>
</svg>
